<svg width="225" height="90" viewBox="0 0 225 90" fill="none" xmlns="http://www.w3.org/2000/svg">
<path d="M0.714997 72.96V59.76L39.955 3.6H59.515V58.32H70.075V72.96H59.515V90H42.715V72.96H0.714997ZM43.795 21.6L19.195 58.32H43.795V21.6ZM79.5709 45.12C79.5709 31.28 82.0509 20.44 87.0109 12.6C92.0509 4.76 100.371 0.839996 111.971 0.839996C123.571 0.839996 131.851 4.76 136.811 12.6C141.851 20.44 144.371 31.28 144.371 45.12C144.371 59.04 141.851 69.96 136.811 77.88C131.851 85.8 123.571 89.76 111.971 89.76C100.371 89.76 92.0509 85.8 87.0109 77.88C82.0509 69.96 79.5709 59.04 79.5709 45.12ZM127.811 45.12C127.811 39.2 127.411 34.24 126.611 30.24C125.891 26.16 124.371 22.84 122.051 20.28C119.811 17.72 116.451 16.44 111.971 16.44C107.491 16.44 104.091 17.72 101.771 20.28C99.5309 22.84 98.0109 26.16 97.2109 30.24C96.4909 34.24 96.1309 39.2 96.1309 45.12C96.1309 51.2 96.4909 56.32 97.2109 60.48C97.9309 64.56 99.4509 67.88 101.771 70.44C104.091 72.92 107.491 74.16 111.971 74.16C116.451 74.16 119.851 72.92 122.171 70.44C124.491 67.88 126.011 64.56 126.731 60.48C127.451 56.32 127.811 51.2 127.811 45.12ZM155.229 72.96V59.76L194.469 3.6H214.029V58.32H224.589V72.96H214.029V90H197.229V72.96H155.229ZM198.309 21.6L173.709 58.32H198.309V21.6Z" fill="#1F86D0" fill-opacity="0.24"/>
</svg>
